<svg id="Layer_1" data-name="Layer 1" xmlns="http://www.w3.org/2000/svg" viewBox="0 0 800 600"><defs><style>.cls-1{fill:#1d1d1b;}</style></defs><title>LOGO_fekete</title><path class="cls-1" d="M251.7,320.23q0,2.27,2.45,2.27h1v1.22H223.9V322.5h1a2,2,0,0,0,2.27-2.27v-7.69q0-1.22-.88-.35a41.17,41.17,0,0,1-12.15,8.39,35.62,35.62,0,0,1-14.95,3.15,36,36,0,0,1-14.16-2.88,38,38,0,0,1-12-8A38.67,38.67,0,0,1,164.89,301a35.45,35.45,0,0,1-3.06-14.69,33.85,33.85,0,0,1,3-14,39.93,39.93,0,0,1,8-11.8,37.56,37.56,0,0,1,11.89-8.13,35.94,35.94,0,0,1,14.51-3,37.62,37.62,0,0,1,14.86,3A35.86,35.86,0,0,1,226.35,261c.23.23.44.29.61.18a.59.59,0,0,0,.26-.53V249.42h1.22a37.7,37.7,0,0,0,26.75,15v1.23h-1q-2.45,0-2.45,2.27Zm-24.48-53.68a6.64,6.64,0,0,0-1.92-4.89,36,36,0,0,0-26.05-11h-.35a9.23,9.23,0,0,0-6.82,2.62q-3.5,3.5-4.11,11.45t-.44,17.75v8.22q-.18,10,.44,17.83t4.11,11.54a10,10,0,0,0,6.82,2.45h.35a34.69,34.69,0,0,0,14.34-3,36.66,36.66,0,0,0,11.54-8,6,6,0,0,0,2.1-4.89Z"/><path class="cls-1" d="M406.78,322.5v1.22h-31.3V322.5h1.22a2,2,0,0,0,2.27-2.27V282.11a122.66,122.66,0,0,0-1.14-17.57q-1.14-7.78-4.63-11.45a11.89,11.89,0,0,0-3-1.92,9.48,9.48,0,0,0-3.85-.7,31.73,31.73,0,0,0-8,1.05,42.38,42.38,0,0,0-7.52,2.71,36.28,36.28,0,0,0-6.47,3.93,28.93,28.93,0,0,0-5.07,4.9,36.36,36.36,0,0,1,8.39,23.6v33.57A2,2,0,0,0,350,322.5h1v1.22h-31.3V322.5h1q2.45,0,2.45-2.27V282.11a122.65,122.65,0,0,0-1.14-17.57q-1.14-7.78-4.63-11.45a10.24,10.24,0,0,0-7-2.62,33.53,33.53,0,0,0-8.65,1.05,38.7,38.7,0,0,0-8,3.15,3.85,3.85,0,0,0-2.1,3.5v62.07q0,2.27,2.45,2.27h1v1.22h-31.3V322.5h1a2,2,0,0,0,2.27-2.27V267.95q0-2.45-2.27-2.45h-1v-1.22a35.66,35.66,0,0,0,15.12-4.72,37.69,37.69,0,0,0,11.45-10.14h1.4l-.17,4.19v.18c0,.35.23.47.7.35a30.58,30.58,0,0,1,8.65-3.59,39.18,39.18,0,0,1,9.35-1.14,35.28,35.28,0,0,1,15.12,3.15,45.69,45.69,0,0,1,12.85,9.27,44.31,44.31,0,0,1,13.11-9.27,36,36,0,0,1,40.74,7.69,40.25,40.25,0,0,1,11.19,26.4v33.57a2,2,0,0,0,2.27,2.27Z"/><path class="cls-1" d="M501.74,320.23q0,2.27,2.45,2.27h1v1.22h-31.3V322.5h1a2,2,0,0,0,2.27-2.27v-7.69q0-1.22-.88-.35a41.17,41.17,0,0,1-12.15,8.39,35.62,35.62,0,0,1-14.95,3.15,36,36,0,0,1-14.16-2.88,38,38,0,0,1-12-8A38.67,38.67,0,0,1,414.94,301a35.45,35.45,0,0,1-3.06-14.69,33.85,33.85,0,0,1,3-14,39.93,39.93,0,0,1,8-11.8,37.56,37.56,0,0,1,11.89-8.13,35.94,35.94,0,0,1,14.51-3,37.62,37.62,0,0,1,14.86,3A35.86,35.86,0,0,1,476.39,261c.23.23.44.29.61.18a.59.59,0,0,0,.26-.53V249.42h1.22a37.7,37.7,0,0,0,26.75,15v1.23h-1q-2.45,0-2.45,2.27Zm-24.48-53.68a6.64,6.64,0,0,0-1.92-4.89,36,36,0,0,0-26.05-11h-.35a9.23,9.23,0,0,0-6.82,2.62q-3.5,3.5-4.11,11.45t-.44,17.75v8.22q-.18,10,.44,17.83t4.11,11.54a10,10,0,0,0,6.82,2.45h.35a34.69,34.69,0,0,0,14.34-3,36.66,36.66,0,0,0,11.54-8,6,6,0,0,0,2.1-4.89Z"/><path class="cls-1" d="M642,320.23q0,2.27,2.45,2.27h1v1.22h-31.3V322.5h1a2,2,0,0,0,2.27-2.27v-7.69q0-1.22-.88-.35a41.17,41.17,0,0,1-12.15,8.39,35.62,35.62,0,0,1-14.95,3.15,36,36,0,0,1-14.16-2.88,38,38,0,0,1-12-8A38.67,38.67,0,0,1,555.17,301a35.45,35.45,0,0,1-3.06-14.69,33.85,33.85,0,0,1,3-14,39.93,39.93,0,0,1,8-11.8A37.56,37.56,0,0,1,575,252.39a35.94,35.94,0,0,1,14.51-3,37.62,37.62,0,0,1,14.86,3A35.86,35.86,0,0,1,616.63,261c.23.23.44.29.61.18a.59.59,0,0,0,.26-.53V249.42h1.22a37.7,37.7,0,0,0,26.75,15v1.23h-1q-2.45,0-2.45,2.27ZM617.5,266.55a6.64,6.64,0,0,0-1.92-4.89,36,36,0,0,0-26.05-11h-.35a9.23,9.23,0,0,0-6.82,2.62q-3.5,3.5-4.11,11.45t-.44,17.75v8.22q-.18,10,.44,17.83t4.11,11.54a10,10,0,0,0,6.82,2.45h.35a34.69,34.69,0,0,0,14.34-3,36.66,36.66,0,0,0,11.54-8,6,6,0,0,0,2.1-4.89Z"/><path class="cls-1" d="M148.2,243.3v3.38q0,2.28,2.45,2.27h9.79v1.69h-9.79q-2.45,0-2.45,2.27v54a18.42,18.42,0,0,0,1.4,8,5.9,5.9,0,0,0,3.15,3.32,6.52,6.52,0,0,0,4.2-.35q2.8-1.22,4.9-2.27l-.17,1.4q-1.93,1.22-3.93,2.36a45.48,45.48,0,0,1-4.46,2.19,26.39,26.39,0,0,1-10.14,2.1,27.21,27.21,0,0,1-7.52-1,17,17,0,0,1-6.12-3.5,15.68,15.68,0,0,1-4.2-6.29,23.11,23.11,0,0,1-1.57-9.09V234a2,2,0,0,0-2.27-2.27h-1v-1.22h23.08a4.55,4.55,0,0,1,3.32,1.4,4.75,4.75,0,0,1,1.4,3.5v7.87Z"/><path class="cls-1" d="M669.6,259.08c-7.1-12.08-21.35-27-48.93-29.58-19.9-1.85-42,4.24-60.56,16.72a97.33,97.33,0,0,0-17,14.36c-.17.16-.59.5-.95.4a.42.42,0,0,1-.35-.44V249.42h-1.22a37.69,37.69,0,0,1-11.45,10.14A35.66,35.66,0,0,1,514,264.28v1.22h1q2.27,0,2.27,2.45v52.28A2,2,0,0,1,515,322.5h-1v1.22h31.3V322.5h-1q-2.45,0-2.45-2.27V266.55a6.19,6.19,0,0,1,.7-2.8,14,14,0,0,1,1-1.75c19.85-21.52,51-33.73,77-31.3,27.07,2.52,41,17.15,48,29,10.57,18,10.36,38,5.68,49.54-.13.26-.18.25-.24.25a13.33,13.33,0,0,0-3.48-6.7,11.64,11.64,0,0,0-6.68-3.52A12.24,12.24,0,1,0,665.41,323a13.54,13.54,0,0,0,4.82-2.82,21.17,21.17,0,0,0,3.69-5.53,51.52,51.52,0,0,0,2.85-9.19C680.07,293.41,679.18,275.38,669.6,259.08Z"/><path class="cls-1" d="M219.92,371.85v1.54h-9.08V354.51h8.79v1.54h-7.12v7h6.66v1.54h-6.66v7.28Z"/><path class="cls-1" d="M227.25,368.53h1.67c.08,2.34,1.43,3.59,3.53,3.59a3.16,3.16,0,0,0,3.42-3.48c0-4.37-8.36-4.39-8.36-9.87a4.59,4.59,0,0,1,4.88-4.61c3,0,4.8,2.1,4.93,5.07h-1.67c-.11-2.37-1.4-3.45-3.21-3.45-2,0-3.23,1.19-3.23,3,0,4.37,8.36,4.21,8.36,9.87a4.91,4.91,0,0,1-5.07,5.09A5,5,0,0,1,227.25,368.53Z"/><path class="cls-1" d="M248.79,364.19,247.44,366v7.36h-1.67V354.51h1.67v9l1.54-2.21,4.82-6.79h2.08l-6,8.22,6.77,10.65h-2Z"/><path class="cls-1" d="M263.8,367.8V354.51h1.67V367.8c0,2.91,1.43,4.2,3.48,4.2s3.48-1.29,3.48-4.2V354.51h1.67V367.8c0,3.83-2.13,5.82-5.15,5.82S263.8,371.63,263.8,367.8Zm2.32-16.71a1.06,1.06,0,1,1,1.08,1.05A1,1,0,0,1,266.12,351.09Zm3.48,0a1,1,0,0,1,1.1-1.05,1.05,1.05,0,1,1,0,2.1A1,1,0,0,1,269.6,351.09Z"/><path class="cls-1" d="M281.56,354.51h1.78l2.83,11.81c.46,1.94.76,3.34,1.11,4.77h.11c.35-1.43.65-2.83,1.11-4.77l2.83-11.81h1.78l-4.8,18.87h-1.94Z"/><path class="cls-1" d="M300.35,367.53v-7.17c0-3.8,2-6.2,5.42-6.2s5.42,2.4,5.42,6.2v7.17c0,3.8-2,6.2-5.42,6.2S300.35,371.33,300.35,367.53Zm9.14,0v-7.17c0-2.91-1.27-4.58-3.72-4.58s-3.72,1.67-3.72,4.58v7.17c0,2.91,1.27,4.58,3.72,4.58S309.49,370.45,309.49,367.53Zm-4.82-14.88h-1.43l1.83-3h1.81Zm2.64,0h-1.43l1.94-3h1.81Z"/><path class="cls-1" d="M321.88,354.51v18.87h-1.67V354.51Z"/><path class="cls-1" d="M342.47,367.94v-8c0-3.72,2-5.69,5.09-5.69s5.07,1.91,5.2,5.39h-1.62c-.13-2.61-1.48-3.83-3.58-3.83s-3.48,1.32-3.48,4.15v8c0,2.83,1.48,4.15,3.61,4.15s3.64-1.32,3.64-3.88v-3.37h-3.67v-1.51h5.26v4.88c0,3.42-2.16,5.45-5.23,5.45S342.47,371.63,342.47,367.94Z"/><path class="cls-1" d="M365.25,366h-2.08v7.36H361.5V354.51h4.31c3.48,0,5.39,2,5.39,5.53,0,3.29-1.56,5.39-4.15,5.88l4.64,7.47h-1.94Zm-2.08-1.56h2.61c2.45,0,3.72-1.54,3.72-4.31s-1.27-4.07-3.69-4.07h-2.64Z"/><path class="cls-1" d="M387,369h-6l-1.1,4.42h-1.78l5-18.87h1.83l5,18.87h-1.78Zm-.38-1.51-1.94-7.82c-.3-1.16-.57-2.51-.65-3H384c-.08.46-.35,1.81-.65,3l-1.94,7.82Z"/><path class="cls-1" d="M399.32,356.05v7.25h6.39v1.54h-6.39v8.55h-1.67V354.51h8.52v1.54Z"/><path class="cls-1" d="M416,354.51v18.87h-1.67V354.51Z"/><path class="cls-1" d="M428.59,364.19,427.24,366v7.36h-1.67V354.51h1.67v9l1.54-2.21,4.83-6.79h2.07l-6,8.22,6.77,10.65h-2Z"/><path class="cls-1" d="M451,369h-6l-1.1,4.42h-1.78l5-18.87h1.83l5,18.87h-1.78Zm-.38-1.51-1.94-7.82c-.3-1.16-.57-2.51-.65-3H448c-.08.46-.35,1.81-.65,3l-1.94,7.82Z"/><path class="cls-1" d="M483.76,373.38c-.51-.75-1-1.51-1.56-2.26a5.93,5.93,0,0,1-4.69,2.61,4.19,4.19,0,0,1-4.31-4.55c0-2.64,1.65-4.42,3.34-6-1.27-2-2.1-3.8-2.1-5.31a3.52,3.52,0,0,1,3.77-3.72,3.62,3.62,0,0,1,3.77,4c-.08,2.21-1.67,3.77-3.29,5.28,1,1.51,2.16,3.13,3.34,4.72a17.14,17.14,0,0,0,.94-2.37h1.86a22.07,22.07,0,0,1-1.7,3.91c1,1.29,1.86,2.56,2.59,3.67Zm-2.61-3.69c-1.29-1.78-2.59-3.48-3.69-5.1-1.35,1.29-2.48,2.64-2.48,4.39a2.84,2.84,0,0,0,2.7,3.13C479,372.12,480.23,371,481.15,369.69Zm-3.37-7.63c1.37-1.24,2.53-2.43,2.53-3.93a2.14,2.14,0,0,0-2.1-2.35,2,2,0,0,0-2.1,2.16A9.69,9.69,0,0,0,477.78,362.06Z"/><path class="cls-1" d="M505.56,354.51h4.23c3.56,0,5.61,2,5.61,5.53v7.84c0,3.48-2.1,5.5-5.61,5.5h-4.23Zm4.23,17.28c2.51,0,3.93-1.35,3.93-4v-7.68c0-2.67-1.4-4-3.93-4h-2.56v15.69Z"/><path class="cls-1" d="M533.51,371.85v1.54h-9.08V354.51h8.79v1.54H526.1v7h6.66v1.54H526.1v7.28Z"/><path class="cls-1" d="M545.08,364.19,543.73,366v7.36h-1.67V354.51h1.67v9l1.54-2.21,4.83-6.79h2.07l-6,8.22,6.76,10.65h-2Z"/><path class="cls-1" d="M559.33,367.53v-7.17c0-3.8,2-6.2,5.42-6.2s5.42,2.4,5.42,6.2v7.17c0,3.8-2,6.2-5.42,6.2S559.33,371.33,559.33,367.53Zm9.14,0v-7.17c0-2.91-1.27-4.58-3.72-4.58s-3.72,1.67-3.72,4.58v7.17c0,2.91,1.27,4.58,3.72,4.58S568.47,370.45,568.47,367.53Z"/><path class="cls-1" d="M582.95,366h-2.07v7.36H579.2V354.51h4.31c3.48,0,5.39,2,5.39,5.53,0,3.29-1.56,5.39-4.15,5.88l4.64,7.47h-1.94Zm-2.07-1.56h2.61c2.45,0,3.72-1.54,3.72-4.31s-1.27-4.07-3.69-4.07h-2.64Z"/></svg>