<svg id="Layer_1" data-name="Layer 1" xmlns="http://www.w3.org/2000/svg" viewBox="0 0 800 600"><defs><style>.cls-1{fill:#fad9d2;}</style></defs><title>ikon_grafika</title><path class="cls-1" d="M449.26,277.68a2.1,2.1,0,0,0-1.26-2.17c-5.15-2.87-11.35-3.94-17.08-5-8.64-1.57-17.38-2.57-26.12-3.35-14.58-1.3-30.56-3.17-45.11-.59a2.07,2.07,0,0,0-1.58,1.09,1.87,1.87,0,0,0-.33,1.21,153.06,153.06,0,0,0-6.29,52.05,2.42,2.42,0,0,0,.83,1.76,2.58,2.58,0,0,0,1,.65c27.35,9.89,56.43,13.75,85.3,9.68a1.93,1.93,0,0,0,1.8-2A247.12,247.12,0,0,0,449.26,277.68Zm-45.66-5.61c8.53.73,17.07,1.68,25.5,3.19,4.38.78,9.2,1.53,13.47,3.22-6.74,6.68-15.38,11.52-23.84,15.58a113,113,0,0,1-13.81,5.63c-2.74.9-6.44,2.44-9.39,2-6.1-1.27-11.87-6.66-16.26-10.73-6.17-5.71-11.79-12.37-15.35-20C376.79,269.26,390.87,271,403.6,272.07Zm-47.18,47.07a148.76,148.76,0,0,1,4.55-43,73.7,73.7,0,0,0,14.76,18.44c4.88,4.52,11.19,10.24,17.9,11.88a2.62,2.62,0,0,0,.56.14,2.76,2.76,0,0,0,.62.06c8,.79,17.14-3.95,24.08-7.13,8.69-4,17.66-8.8,24.91-15.28A239.68,239.68,0,0,1,436,328.37C409.07,331.92,381.92,328.1,356.42,319.14Z"/></svg>