<svg id="Layer_1" data-name="Layer 1" xmlns="http://www.w3.org/2000/svg" viewBox="0 0 800 600"><defs><style>.cls-1{fill:#fad9d2;}</style></defs><title>ikon_dekor</title><path class="cls-1" d="M448.87,327.24a2.42,2.42,0,0,0-2.13-1.42c-8.94-.52-15.16-10.83-20-17.22-1.43-1.86-2.88-3.69-4.39-5.44a80.2,80.2,0,0,0,16.81,3.26c13.18,1.12,9.24-17.92,8.49-25.71-.74-7.6-.79-16.33-3.2-23.62-1.81-5.48-6.3-6-11.38-4.86-11.7,2.67-20.79,12.5-26.6,22.78-3.12-2.46-8.6-2.15-11.63.38-7.67-8.76-18.17-15-29.93-16.11-4.72-.44-11-.61-12.88,4.76-1.11,3.18-.69,7-.63,10.28q.14,6.75.52,13.48c.45,8-.54,27.54,12.63,24.56a86.2,86.2,0,0,0,19.61-7.26c-1.76,2.72-3.35,5.57-4.9,8.45-3.78,7-8.08,17.13-16.59,19.18a2.47,2.47,0,0,0-2,2.65,2.28,2.28,0,0,0,1.76,2.25,32.35,32.35,0,0,1,16.12,10.46,2.33,2.33,0,0,0,.91.69,2,2,0,0,0,2.12-.3c6.44-4.9,7.93-12.14,9.26-19.74,1.72-9.91,4.74-19.61,10.37-28a10,10,0,0,0,2.71-.33c6.93,7.51,11.33,16.72,14.63,26.32,2.36,6.87,5,13.77,11.72,17.41a2.44,2.44,0,0,0,1.58.29,2.28,2.28,0,0,0,1.84-1.18,32.19,32.19,0,0,1,13.81-12.49,2,2,0,0,0,1-.56l.06,0h0A2.11,2.11,0,0,0,448.87,327.24Zm-18.08-69.08a14.83,14.83,0,0,1,5.59-1.45c3.87.16,3.82,4.19,4.24,7.11.93,6.53,1.65,13.09,2.24,19.66.33,3.65,3.05,16.35-1.81,18.09-1.08.39-5-.54-6.58-.82-8.51-1.5-17.06-4-24.46-8.57a24.08,24.08,0,0,0-.74-11.9C413.92,271.08,421,262.1,430.79,258.16Zm-27.61,20.65c3,5.34,2.69,10.5,1.07,16.17a5,5,0,0,1-5.26.09c-1.85-4.83-3.22-11-1-15.82C399.24,278.27,401.95,277.9,403.17,278.81Zm-41.14,29c-5.72-1.13-4.78-13.74-5-18.06-.38-6.09-.62-12.2-.68-18.3,0-1-.33-3.09.06-4,.94-2.16,3.35-3,5.32-3.33a19.89,19.89,0,0,1,6.37.64c9.83,2,18.12,7.89,24.37,15.53a26.91,26.91,0,0,0,.87,13.58,104.1,104.1,0,0,1-24.62,12C367.11,306.42,363.74,308.12,362,307.79Zm25,14.38c-1.54,6.69-1.5,15.43-6.52,20.66A36.91,36.91,0,0,0,369.63,335c4.86-3.28,8.26-8.75,11.11-13.81,4.43-7.88,8.12-16.17,15-22.29h0l.46.3A72.34,72.34,0,0,0,387,322.17Zm43.76,16.33C425,334,423.65,325.58,421,319a74,74,0,0,0-12.55-21,1.82,1.82,0,0,0,.31-.47l.07.05c7.82,4.95,12.81,12.73,18.45,19.85,3.62,4.57,7.75,9.25,13,11.68A37.22,37.22,0,0,0,430.74,338.5Z"/></svg>