<?xml version="1.0" encoding="UTF-8" standalone="no"?>
<!DOCTYPE svg PUBLIC "-//W3C//DTD SVG 1.1//EN" "http://www.w3.org/Graphics/SVG/1.1/DTD/svg11.dtd">
<svg version="1.1" xmlns="http://www.w3.org/2000/svg" xmlns:xlink="http://www.w3.org/1999/xlink" preserveAspectRatio="xMidYMid meet" viewBox="0 0 570 200" width="570" height="200"><defs><path d="M166.77 115.02C166.77 116.23 167.42 116.83 168.73 116.83L169.53 116.83L169.53 117.81L144.53 117.81L144.53 116.83C145.01 116.83 145.28 116.83 145.33 116.83C146.2 116.96 147.02 116.36 147.15 115.48C147.17 115.33 147.17 115.17 147.15 115.02C147.15 114.4 147.15 109.48 147.15 108.86C147.15 107.89 146.51 108.61 146.44 108.58C143.63 111.39 140.34 113.66 136.72 115.3C132.96 116.99 128.88 117.85 124.76 117.82C120.87 117.82 117.01 117.04 113.43 115.51C109.85 114.01 106.6 111.84 103.83 109.11C101.09 106.39 98.88 103.17 97.32 99.63C95.68 95.93 94.84 91.93 94.87 87.88C94.87 84.02 95.68 80.2 97.27 76.68C98.82 73.17 100.99 69.98 103.67 67.24C106.39 64.48 109.62 62.27 113.19 60.74C116.85 59.14 120.8 58.32 124.79 58.34C128.88 58.32 132.92 59.14 136.68 60.74C140.4 62.32 143.74 64.67 146.49 67.63C146.67 67.82 146.84 67.86 146.98 67.78C147.12 67.68 147.2 67.52 147.19 67.35C147.19 66.75 147.19 63.76 147.19 58.37C147.77 58.37 148.1 58.37 148.16 58.37C153.27 65.22 161.05 69.58 169.56 70.37C169.56 70.43 169.56 70.76 169.56 71.35C169.08 71.35 168.81 71.35 168.76 71.35C167.45 71.35 166.8 71.96 166.8 73.17C166.78 95.49 166.77 109.44 166.77 115.02ZM147.19 72.07C147.23 70.61 146.68 69.2 145.65 68.16C140.19 62.51 132.67 59.33 124.81 59.36C124.78 59.36 124.56 59.36 124.53 59.36C122.5 59.28 120.53 60.04 119.07 61.46C116.27 64.26 116.11 69.7 115.79 70.62C115.46 74.86 115.34 79.59 115.43 84.82C115.43 88.76 115.43 90.95 115.43 91.39C115.29 99.39 115.75 104.23 115.79 105.66C116.28 111.92 118.74 113.96 119.07 114.89C120.58 116.2 122.53 116.9 124.53 116.85C124.56 116.85 124.78 116.85 124.81 116.85C128.76 116.87 132.67 116.06 136.28 114.45C139.74 112.93 142.88 110.76 145.51 108.05C146.65 107.08 147.27 105.63 147.19 104.14C147.19 97.72 147.19 78.48 147.19 72.07Z" id="a12OPWGe3"></path><path d="M290.83 116.83L290.83 117.81L265.79 117.81L265.79 116.83C266.38 116.83 266.7 116.83 266.77 116.83C267.64 116.96 268.46 116.36 268.59 115.48C268.61 115.33 268.61 115.17 268.59 115.02C268.59 111.97 268.59 87.57 268.59 84.52C268.62 79.82 268.31 75.12 267.67 70.46C266.76 64.24 264.34 62.22 263.97 61.3C263.25 60.67 262.44 60.16 261.57 59.77C260.59 59.37 259.54 59.18 258.49 59.21C256.33 59.21 254.18 59.5 252.09 60.05C250.02 60.58 248.01 61.31 246.07 62.22C244.24 63.08 242.51 64.13 240.9 65.36C239.39 66.5 238.03 67.81 236.84 69.28C241.24 74.58 243.62 81.27 243.55 88.16C243.55 90.85 243.55 112.33 243.55 115.02C243.42 115.89 244.02 116.7 244.9 116.84C245.07 116.86 245.24 116.86 245.41 116.83C245.46 116.83 245.73 116.83 246.21 116.83L246.21 117.81L221.17 117.81L221.17 116.83C221.65 116.83 221.92 116.83 221.97 116.83C223.28 116.83 223.93 116.23 223.93 115.02C223.93 96.72 223.93 86.55 223.93 84.52C223.96 79.82 223.66 75.12 223.02 70.46C222.11 64.24 219.68 62.22 219.31 61.3C217.78 59.92 215.78 59.18 213.71 59.21C211.38 59.19 209.05 59.47 206.79 60.05C204.57 60.65 202.43 61.49 200.39 62.57C199.34 63.1 198.69 64.19 198.71 65.37C198.71 70.33 198.71 110.06 198.71 115.02C198.71 116.23 199.37 116.84 200.67 116.84L201.47 116.84L201.47 117.82L176.43 117.82L176.43 116.83C176.91 116.83 177.18 116.83 177.23 116.83C178.11 116.96 178.92 116.36 179.05 115.48C179.07 115.33 179.07 115.17 179.05 115.02C179.05 110.83 179.05 77.37 179.05 73.19C179.05 71.89 178.44 71.23 177.23 71.23L176.43 71.23C176.43 70.65 176.43 70.32 176.43 70.26C180.7 69.92 184.83 68.63 188.53 66.48C192.1 64.43 195.22 61.67 197.69 58.37C197.76 58.37 198.14 58.37 198.81 58.37L198.67 61.72C198.67 61.81 198.67 61.85 198.67 61.86C198.67 62.14 198.86 62.24 199.23 62.14C201.38 60.84 203.71 59.87 206.15 59.27C208.6 58.67 211.11 58.36 213.63 58.36C217.8 58.3 221.93 59.16 225.73 60.88C229.56 62.73 233.04 65.24 236.01 68.3C239.02 65.21 242.58 62.69 246.5 60.88C257.57 55.84 270.62 58.3 279.09 67.03C284.56 72.73 287.75 80.25 288.04 88.15C288.04 90.84 288.04 112.32 288.04 115.01C287.91 115.88 288.52 116.69 289.39 116.82C289.55 116.85 289.7 116.85 289.86 116.82C289.99 116.82 290.31 116.83 290.83 116.83Z" id="bzcry9oEq"></path><path d="M366.8 115.02C366.8 116.23 367.45 116.83 368.76 116.83L369.56 116.83L369.56 117.81L344.52 117.81L344.52 116.83C345 116.83 345.27 116.83 345.32 116.83C346.2 116.96 347.01 116.36 347.14 115.48C347.16 115.33 347.16 115.17 347.14 115.02C347.14 114.4 347.14 109.48 347.14 108.86C347.14 107.89 346.5 108.61 346.43 108.58C343.62 111.39 340.33 113.66 336.71 115.3C332.96 116.99 328.88 117.85 324.75 117.82C320.86 117.82 317.01 117.04 313.43 115.51C309.85 114.01 306.59 111.84 303.83 109.11C301.1 106.38 298.91 103.17 297.36 99.63C295.72 95.93 294.88 91.93 294.91 87.88C294.91 84.02 295.72 80.2 297.31 76.68C298.86 73.17 301.03 69.98 303.71 67.24C306.43 64.48 309.66 62.27 313.23 60.74C316.89 59.14 320.84 58.32 324.83 58.34C328.92 58.32 332.96 59.14 336.72 60.74C340.44 62.32 343.78 64.67 346.52 67.63C346.71 67.82 346.87 67.86 347.01 67.78C347.15 67.68 347.23 67.52 347.22 67.35C347.22 66.75 347.22 63.76 347.22 58.37C347.8 58.37 348.13 58.37 348.19 58.37C353.3 65.22 361.08 69.58 369.59 70.37C369.59 70.43 369.59 70.76 369.59 71.35C369.11 71.35 368.85 71.35 368.79 71.35C367.49 71.35 366.83 71.96 366.83 73.17C366.82 95.49 366.81 109.44 366.8 115.02ZM347.22 72.07C347.26 70.61 346.71 69.2 345.68 68.16C340.23 62.51 332.7 59.33 324.84 59.36C324.81 59.36 324.59 59.36 324.56 59.36C322.53 59.28 320.56 60.04 319.11 61.46C316.31 64.26 316.15 69.7 315.82 70.62C315.49 74.86 315.37 79.59 315.47 84.82C315.47 88.76 315.47 90.95 315.47 91.39C315.32 99.39 315.78 104.23 315.82 105.66C316.31 111.92 318.78 113.96 319.11 114.89C320.61 116.2 322.56 116.9 324.56 116.85C324.59 116.85 324.81 116.85 324.84 116.85C328.79 116.87 332.7 116.06 336.31 114.45C339.77 112.93 342.91 110.76 345.55 108.05C346.68 107.08 347.31 105.63 347.23 104.14C347.22 97.72 347.22 78.48 347.22 72.07Z" id="b4F0plh17s"></path><path d="M479.01 115.02C479.01 116.23 479.66 116.83 480.97 116.83L481.77 116.83L481.77 117.81L456.73 117.81L456.73 116.83C457.21 116.83 457.48 116.83 457.53 116.83C458.4 116.96 459.22 116.36 459.35 115.48C459.37 115.33 459.37 115.17 459.35 115.02C459.35 114.4 459.35 109.48 459.35 108.86C459.35 107.89 458.71 108.61 458.64 108.58C455.83 111.39 452.54 113.66 448.92 115.3C445.16 116.99 441.08 117.85 436.96 117.82C433.07 117.82 429.21 117.04 425.63 115.51C422.05 114.01 418.8 111.84 416.03 109.11C413.3 106.38 411.1 103.17 409.55 99.63C407.9 95.93 407.07 91.93 407.1 87.88C407.09 84.02 407.91 80.2 409.5 76.68C411.05 73.17 413.21 69.98 415.9 67.24C418.62 64.48 421.85 62.28 425.41 60.74C429.07 59.15 433.02 58.33 437.02 58.34C441.1 58.33 445.15 59.15 448.91 60.74C452.62 62.32 455.97 64.67 458.71 67.63C458.9 67.82 459.07 67.86 459.2 67.78C459.34 67.68 459.42 67.52 459.41 67.35C459.41 66.75 459.41 63.76 459.41 58.37C459.99 58.37 460.32 58.37 460.39 58.37C465.5 65.22 473.27 69.58 481.79 70.37C481.79 70.43 481.79 70.76 481.79 71.35C481.31 71.35 481.04 71.35 480.99 71.35C479.68 71.35 479.03 71.96 479.03 73.17C479.02 95.49 479.01 109.44 479.01 115.02ZM459.41 72.07C459.46 70.61 458.9 69.2 457.87 68.16C452.42 62.51 444.89 59.33 437.03 59.36C437.01 59.36 436.78 59.36 436.75 59.36C434.72 59.28 432.75 60.04 431.3 61.46C428.5 64.26 428.34 69.7 428.01 70.62C427.68 74.86 427.57 79.59 427.66 84.82C427.66 88.76 427.66 90.95 427.66 91.39C427.51 99.39 427.97 104.23 428.01 105.66C428.51 111.92 430.97 113.96 431.3 114.89C432.81 116.2 434.75 116.9 436.75 116.85C436.78 116.85 437.01 116.85 437.03 116.85C440.98 116.87 444.9 116.06 448.51 114.45C451.97 112.93 455.1 110.76 457.74 108.05C458.88 107.08 459.5 105.63 459.42 104.14C459.42 97.72 459.41 78.48 459.41 72.07Z" id="c5woH2FH0"></path><path d="M83.97 56.18C83.97 57.39 84.62 58 85.93 57.99L93.76 57.99L93.76 59.34C89.06 59.34 86.45 59.34 85.93 59.34C84.62 59.34 83.97 59.95 83.97 61.16C83.97 87.08 83.97 101.48 83.97 104.36C83.86 106.55 84.24 108.74 85.09 110.76C85.54 111.95 86.45 112.91 87.61 113.42C88.73 113.7 89.91 113.6 90.97 113.14C92.46 112.49 93.77 111.88 94.89 111.32C94.81 111.99 94.76 112.37 94.75 112.44C93.21 113.42 91.92 114.14 91.61 114.33C90.45 114.98 89.26 115.56 88.04 116.08C85.47 117.17 82.72 117.74 79.93 117.76C77.9 117.78 75.87 117.51 73.91 116.96C72.1 116.38 70.44 115.42 69.02 114.16C67.5 112.78 66.35 111.05 65.66 109.13C64.75 106.81 64.33 104.34 64.4 101.86C64.4 96.27 64.4 51.61 64.4 46.03C64.53 45.16 63.93 44.34 63.05 44.22C62.9 44.19 62.74 44.19 62.59 44.22C62.53 44.22 62.27 44.22 61.79 44.22L61.79 43.24C72.86 43.24 79.02 43.24 80.25 43.24C81.25 43.23 82.21 43.64 82.91 44.36C83.65 45.1 84.05 46.11 84.03 47.16C84.03 47.58 84.03 49.68 84.03 53.46C83.99 55.09 83.97 56 83.97 56.18Z" id="iEkqRdNXo"></path><path d="M461.95 42.43C446.03 40.95 428.35 45.82 413.5 55.81C408.54 59.1 403.98 62.96 399.9 67.3C399.76 67.42 399.43 67.7 399.14 67.62C398.97 67.59 398.85 67.44 398.86 67.26C398.86 66.67 398.86 63.71 398.86 58.37C398.27 58.37 397.95 58.37 397.88 58.37C395.41 61.67 392.3 64.43 388.72 66.48C385.02 68.63 380.88 69.92 376.61 70.26C376.61 70.32 376.61 70.65 376.61 71.23C377.09 71.23 377.36 71.23 377.41 71.23C378.62 71.23 379.23 71.89 379.23 73.19C379.23 98.29 379.23 112.23 379.23 115.02C379.35 115.89 378.75 116.7 377.88 116.83C377.72 116.85 377.56 116.85 377.41 116.83C377.36 116.83 377.09 116.83 376.61 116.83L376.61 117.81L401.65 117.81L401.65 116.83C401.17 116.83 400.9 116.83 400.85 116.83C399.54 116.83 398.89 116.23 398.89 115.02C398.89 89.25 398.89 74.93 398.89 72.07C398.9 71.29 399.09 70.52 399.45 69.83C399.68 69.35 399.95 68.88 400.25 68.43C416.13 51.22 441.05 41.45 461.85 43.39C483.51 45.41 494.65 57.11 500.25 66.59C508.71 80.99 508.54 96.99 504.79 106.22C504.69 106.43 504.65 106.42 504.6 106.42C504.21 104.41 503.24 102.54 501.82 101.06C500.4 99.56 498.52 98.57 496.47 98.25C491.15 97.32 486.07 100.88 485.14 106.21C484.21 111.54 487.78 116.61 493.11 117.54C494.65 117.81 496.24 117.7 497.74 117.23C499.17 116.76 500.48 115.99 501.59 114.98C502.8 113.67 503.8 112.17 504.55 110.55C505.53 108.18 506.3 105.72 506.83 103.2C509.47 93.56 508.75 79.14 501.09 66.1C495.41 56.43 484.01 44.5 461.95 42.43Z" id="c3hUdKrUHB"></path><path d="M141.35 156.31L141.35 157.54L134.08 157.54L134.08 142.44L141.11 142.44L141.11 143.67L135.42 143.67L135.42 149.27L140.75 149.27L140.75 150.5L135.42 150.5L135.42 156.33L141.35 156.31Z" id="dAGnA4CtS"></path><path d="M148.55 153.66C148.61 155.53 149.69 156.53 151.37 156.53C152.76 156.65 153.99 155.62 154.11 154.23C154.12 154.07 154.12 153.91 154.11 153.74C154.11 150.25 147.42 150.23 147.42 145.85C147.4 143.82 149.04 142.17 151.07 142.15C151.15 142.15 151.24 142.15 151.32 142.16C153.72 142.16 155.16 143.84 155.27 146.22C155.13 146.22 154.06 146.22 153.93 146.22C153.84 144.32 152.81 143.46 151.36 143.46C149.76 143.46 148.78 144.41 148.78 145.86C148.78 149.35 155.47 149.22 155.47 153.75C155.55 155.92 153.85 157.74 151.69 157.82C151.59 157.83 151.5 157.83 151.41 157.82C149.2 157.94 147.32 156.24 147.21 154.03C147.2 153.91 147.2 153.78 147.21 153.66C147.48 153.66 148.41 153.66 148.55 153.66Z" id="d3uA3G1HXx"></path><path d="M164.44 150.18L163.36 151.63L163.36 157.52L162.03 157.52L162.03 142.44L163.36 142.44L163.36 149.64L164.59 147.87L168.45 142.44L170.11 142.44L165.31 149.02L170.73 157.54L169.13 157.54L164.44 150.18Z" id="c2obAmCuBw"></path><path d="M176.45 142.44L177.79 142.44C177.79 148.82 177.79 152.36 177.79 153.07C177.79 155.4 178.93 156.43 180.57 156.43C182.21 156.43 183.35 155.4 183.35 153.07C183.35 152.36 183.35 148.82 183.35 142.44L184.69 142.44C184.69 148.82 184.69 152.36 184.69 153.07C184.69 156.14 182.99 157.73 180.57 157.73C178.15 157.73 176.45 156.14 176.45 153.07C176.45 151.65 176.45 148.11 176.45 142.44ZM179.15 138.85C179.61 138.84 180 139.22 180 139.69C180.01 140.15 179.63 140.53 179.17 140.54C178.73 140.58 178.34 140.25 178.31 139.81C178.3 139.78 178.3 139.74 178.31 139.7C178.3 139.24 178.68 138.85 179.15 138.85ZM181.84 138.86C181.89 138.86 181.93 138.86 181.97 138.86C182.43 138.86 182.81 139.24 182.81 139.7C182.81 140.17 182.43 140.54 181.97 140.54C181.53 140.59 181.14 140.27 181.09 139.83C181.09 139.79 181.09 139.75 181.09 139.7C181.06 139.26 181.4 138.89 181.84 138.86Z" id="d6BLwQyrH"></path><path d="M190.66 142.44L192.08 142.44C193.44 148.11 194.19 151.26 194.35 151.89C194.71 153.44 194.95 154.56 195.23 155.7C195.24 155.7 195.31 155.7 195.32 155.7C195.6 154.56 195.84 153.44 196.21 151.89C196.36 151.26 197.11 148.11 198.47 142.44L199.9 142.44L196.06 157.54L194.51 157.54L190.66 142.44Z" id="j1Iy22LwBi"></path><path d="M205.69 147.12C205.69 144.08 207.29 142.16 210.03 142.16C212.76 142.16 214.36 144.08 214.36 147.12C214.36 147.69 214.36 152.28 214.36 152.86C214.36 155.9 212.76 157.82 210.03 157.82C207.29 157.82 205.69 155.9 205.69 152.86C205.69 151.71 205.69 147.69 205.69 147.12ZM213 147.12C213 144.79 211.99 143.46 210.03 143.46C208.07 143.46 207.05 144.79 207.05 147.12C207.05 147.69 207.05 152.28 207.05 152.86C207.05 155.18 208.07 156.52 210.03 156.52C211.99 156.52 213 155.19 213 152.86C213 151.71 213 147.69 213 147.12ZM209.15 140.95L208 140.95L209.47 138.55L210.91 138.55L209.15 140.95ZM211.26 140.95L210.11 140.95L211.67 138.55L213.11 138.55L211.26 140.95Z" id="aA1Ef2Nqo"></path><path d="M222.91 142.44L222.91 157.54L221.58 157.54L221.58 142.44L222.91 142.44Z" id="b3Iyef2y4u"></path><path d="M239.39 146.78C239.39 143.81 240.99 142.23 243.46 142.23C245.93 142.23 247.51 143.76 247.62 146.54C247.49 146.54 246.45 146.54 246.32 146.54C246.22 144.46 245.14 143.48 243.46 143.48C241.78 143.48 240.67 144.54 240.67 146.8C240.67 147.44 240.67 152.56 240.67 153.2C240.67 155.46 241.86 156.52 243.56 156.52C245.27 156.52 246.47 155.46 246.47 153.42C246.47 153.24 246.47 152.34 246.47 150.72L243.54 150.72L243.54 149.51L247.75 149.51C247.75 151.85 247.75 153.16 247.75 153.42C247.75 156.15 246.02 157.78 243.56 157.78C241.11 157.78 239.39 156.14 239.39 153.18C239.39 151.9 239.39 147.42 239.39 146.78Z" id="a1vcrfF4T1"></path><path d="M257.61 151.63L255.95 151.63L255.95 157.52L254.61 157.52L254.61 142.44C256.68 142.44 257.83 142.44 258.06 142.44C260.84 142.44 262.37 144.04 262.37 146.86C262.37 149.5 261.12 151.18 259.05 151.57C259.3 151.97 260.53 153.96 262.76 157.54L261.21 157.54L257.61 151.63ZM255.95 150.38C257.2 150.38 257.89 150.38 258.03 150.38C259.99 150.38 261.01 149.15 261.01 146.94C261.01 144.72 259.99 143.68 258.06 143.68C257.92 143.68 257.21 143.68 255.95 143.68L255.95 150.38Z" id="ddTJPxgqW"></path><path d="M275.01 154.03L270.21 154.03L269.33 157.57L267.91 157.57L271.91 142.47L273.37 142.47L277.37 157.57L275.95 157.57L275.01 154.03ZM274.71 152.82C273.77 149.07 273.26 146.98 273.15 146.57C272.91 145.64 272.7 144.56 272.63 144.17C272.63 144.17 272.61 144.17 272.61 144.17C272.55 144.54 272.33 145.62 272.09 146.57C271.99 146.98 271.47 149.07 270.54 152.82L274.71 152.82Z" id="b3aMCUAr7A"></path><path d="M284.87 143.67L284.87 149.47L289.98 149.47L289.98 150.7L284.87 150.7L284.87 157.54L283.53 157.54L283.53 142.44L290.35 142.44L290.35 143.67L284.87 143.67Z" id="f1eWDun3G0"></path><path d="M298.21 142.44L298.21 157.54L296.87 157.54L296.87 142.44L298.21 142.44Z" id="d1541PdrCN"></path><path d="M308.28 150.18L307.2 151.63L307.2 157.52L305.87 157.52L305.87 142.44L307.2 142.44L307.2 149.64L308.43 147.87L312.3 142.44L313.95 142.44L309.15 149.02L314.57 157.54L312.97 157.54L308.28 150.18Z" id="bpiQE3AA"></path><path d="M326.21 154.03L321.41 154.03L320.53 157.57L319.11 157.57L323.11 142.47L324.57 142.47L328.57 157.57L327.15 157.57L326.21 154.03ZM325.91 152.82C324.97 149.07 324.46 146.98 324.35 146.57C324.11 145.64 323.9 144.56 323.83 144.17C323.83 144.17 323.81 144.17 323.81 144.17C323.75 144.54 323.53 145.62 323.29 146.57C323.19 146.98 322.67 149.07 321.74 152.82L325.91 152.82Z" id="a2sh3oZ3XY"></path><path d="M352.42 157.54C352.01 156.94 351.62 156.33 351.17 155.73C350.32 156.98 348.93 157.76 347.42 157.82C345.57 157.88 344.02 156.42 343.96 154.57C343.95 154.44 343.96 154.31 343.97 154.18C343.97 152.06 345.29 150.64 346.64 149.38C345.63 147.78 344.96 146.34 344.96 145.13C344.87 143.58 346.05 142.24 347.6 142.15C347.73 142.14 347.85 142.14 347.98 142.15C349.57 142.08 350.93 143.31 351.01 144.91C351.01 145.06 351.01 145.2 350.99 145.35C350.93 147.12 349.66 148.37 348.36 149.58C349.16 150.78 350.09 152.08 351.03 153.35C351.33 152.74 351.58 152.11 351.79 151.46C351.93 151.46 353.12 151.46 353.27 151.46C352.92 152.54 352.47 153.59 351.91 154.58C352.71 155.62 353.4 156.63 353.99 157.52C353.67 157.52 352.73 157.53 352.42 157.54ZM347.38 150.5C346.3 151.54 345.39 152.62 345.39 154.02C345.26 155.26 346.17 156.38 347.42 156.51C347.46 156.51 347.51 156.52 347.55 156.52C348.61 156.53 349.59 155.63 350.33 154.58C349.3 153.16 348.26 151.8 347.38 150.5ZM349.66 145.34C349.75 144.39 349.06 143.56 348.12 143.46C348.07 143.46 348.03 143.46 347.98 143.46C347.09 143.41 346.34 144.09 346.29 144.97C346.29 145.04 346.29 145.11 346.3 145.18C346.48 146.37 346.94 147.5 347.63 148.48C348.73 147.49 349.66 146.54 349.66 145.34Z" id="c8zzjOIfia"></path><path d="M369.86 142.44C371.89 142.44 373.02 142.44 373.24 142.44C376.09 142.44 377.73 144.04 377.73 146.86C377.73 147.49 377.73 152.51 377.73 153.14C377.73 155.92 376.05 157.54 373.24 157.54C373.02 157.54 371.89 157.54 369.86 157.54L369.86 142.44ZM373.24 156.26C375.25 156.26 376.39 155.18 376.39 153.06C376.39 152.45 376.39 147.53 376.39 146.92C376.39 144.78 375.27 143.72 373.24 143.72C373.1 143.72 372.42 143.72 371.19 143.72L371.19 156.27C372.29 156.27 372.97 156.26 373.24 156.26Z" id="a3w8Ly3Vfi"></path><path d="M392.22 156.31L392.22 157.54L384.95 157.54L384.95 142.44L391.99 142.44L391.99 143.67L386.29 143.67L386.29 149.27L391.62 149.27L391.62 150.5L386.29 150.5L386.29 156.33L392.22 156.31Z" id="ayJhhksb"></path><path d="M401.47 150.18L400.39 151.63L400.39 157.52L399.06 157.52L399.06 142.44L400.39 142.44L400.39 149.64L401.63 147.87L405.49 142.44L407.15 142.44L402.35 149.02L407.75 157.54L406.15 157.54L401.47 150.18Z" id="a3leAl2Vam"></path><path d="M412.87 147.12C412.87 144.08 414.47 142.16 417.21 142.16C419.95 142.16 421.55 144.08 421.55 147.12C421.55 147.69 421.55 152.28 421.55 152.86C421.55 155.9 419.95 157.82 417.21 157.82C414.47 157.82 412.87 155.9 412.87 152.86C412.87 151.71 412.87 147.69 412.87 147.12ZM420.19 147.12C420.19 144.79 419.17 143.46 417.21 143.46C415.25 143.46 414.23 144.79 414.23 147.12C414.23 147.69 414.23 152.28 414.23 152.86C414.23 155.18 415.25 156.52 417.21 156.52C419.17 156.52 420.19 155.19 420.19 152.86C420.19 151.71 420.19 147.69 420.19 147.12Z" id="a5nUpjUacy"></path><path d="M431.77 151.63L430.11 151.63L430.11 157.52L428.77 157.52L428.77 142.44C430.84 142.44 431.99 142.44 432.22 142.44C435 142.44 436.53 144.04 436.53 146.86C436.53 149.5 435.28 151.18 433.21 151.57C433.46 151.97 434.69 153.96 436.92 157.54L435.37 157.54L431.77 151.63ZM430.11 150.38C431.37 150.38 432.06 150.38 432.2 150.38C434.16 150.38 435.18 149.15 435.18 146.94C435.18 144.72 434.16 143.68 432.23 143.68C432.08 143.68 431.38 143.68 430.11 143.68L430.11 150.38Z" id="e3kEKNmBro"></path></defs><g><g><g><use xlink:href="#a12OPWGe3" opacity="1" fill="#ffffff" fill-opacity="1"></use><g><use xlink:href="#a12OPWGe3" opacity="1" fill-opacity="0" stroke="#000000" stroke-width="1" stroke-opacity="0"></use></g></g><g><use xlink:href="#bzcry9oEq" opacity="1" fill="#ffffff" fill-opacity="1"></use><g><use xlink:href="#bzcry9oEq" opacity="1" fill-opacity="0" stroke="#000000" stroke-width="1" stroke-opacity="0"></use></g></g><g><use xlink:href="#b4F0plh17s" opacity="1" fill="#ffffff" fill-opacity="1"></use><g><use xlink:href="#b4F0plh17s" opacity="1" fill-opacity="0" stroke="#000000" stroke-width="1" stroke-opacity="0"></use></g></g><g><use xlink:href="#c5woH2FH0" opacity="1" fill="#ffffff" fill-opacity="1"></use><g><use xlink:href="#c5woH2FH0" opacity="1" fill-opacity="0" stroke="#000000" stroke-width="1" stroke-opacity="0"></use></g></g><g><use xlink:href="#iEkqRdNXo" opacity="1" fill="#ffffff" fill-opacity="1"></use><g><use xlink:href="#iEkqRdNXo" opacity="1" fill-opacity="0" stroke="#000000" stroke-width="1" stroke-opacity="0"></use></g></g><g><use xlink:href="#c3hUdKrUHB" opacity="1" fill="#ffffff" fill-opacity="1"></use><g><use xlink:href="#c3hUdKrUHB" opacity="1" fill-opacity="0" stroke="#000000" stroke-width="1" stroke-opacity="0"></use></g></g><g><use xlink:href="#dAGnA4CtS" opacity="1" fill="#ffffff" fill-opacity="1"></use><g><use xlink:href="#dAGnA4CtS" opacity="1" fill-opacity="0" stroke="#000000" stroke-width="1" stroke-opacity="0"></use></g></g><g><use xlink:href="#d3uA3G1HXx" opacity="1" fill="#ffffff" fill-opacity="1"></use><g><use xlink:href="#d3uA3G1HXx" opacity="1" fill-opacity="0" stroke="#000000" stroke-width="1" stroke-opacity="0"></use></g></g><g><use xlink:href="#c2obAmCuBw" opacity="1" fill="#ffffff" fill-opacity="1"></use><g><use xlink:href="#c2obAmCuBw" opacity="1" fill-opacity="0" stroke="#000000" stroke-width="1" stroke-opacity="0"></use></g></g><g><use xlink:href="#d6BLwQyrH" opacity="1" fill="#ffffff" fill-opacity="1"></use><g><use xlink:href="#d6BLwQyrH" opacity="1" fill-opacity="0" stroke="#000000" stroke-width="1" stroke-opacity="0"></use></g></g><g><use xlink:href="#j1Iy22LwBi" opacity="1" fill="#ffffff" fill-opacity="1"></use><g><use xlink:href="#j1Iy22LwBi" opacity="1" fill-opacity="0" stroke="#000000" stroke-width="1" stroke-opacity="0"></use></g></g><g><use xlink:href="#aA1Ef2Nqo" opacity="1" fill="#ffffff" fill-opacity="1"></use><g><use xlink:href="#aA1Ef2Nqo" opacity="1" fill-opacity="0" stroke="#000000" stroke-width="1" stroke-opacity="0"></use></g></g><g><use xlink:href="#b3Iyef2y4u" opacity="1" fill="#ffffff" fill-opacity="1"></use><g><use xlink:href="#b3Iyef2y4u" opacity="1" fill-opacity="0" stroke="#000000" stroke-width="1" stroke-opacity="0"></use></g></g><g><use xlink:href="#a1vcrfF4T1" opacity="1" fill="#ffffff" fill-opacity="1"></use><g><use xlink:href="#a1vcrfF4T1" opacity="1" fill-opacity="0" stroke="#000000" stroke-width="1" stroke-opacity="0"></use></g></g><g><use xlink:href="#ddTJPxgqW" opacity="1" fill="#ffffff" fill-opacity="1"></use><g><use xlink:href="#ddTJPxgqW" opacity="1" fill-opacity="0" stroke="#000000" stroke-width="1" stroke-opacity="0"></use></g></g><g><use xlink:href="#b3aMCUAr7A" opacity="1" fill="#ffffff" fill-opacity="1"></use><g><use xlink:href="#b3aMCUAr7A" opacity="1" fill-opacity="0" stroke="#000000" stroke-width="1" stroke-opacity="0"></use></g></g><g><use xlink:href="#f1eWDun3G0" opacity="1" fill="#ffffff" fill-opacity="1"></use><g><use xlink:href="#f1eWDun3G0" opacity="1" fill-opacity="0" stroke="#000000" stroke-width="1" stroke-opacity="0"></use></g></g><g><use xlink:href="#d1541PdrCN" opacity="1" fill="#ffffff" fill-opacity="1"></use><g><use xlink:href="#d1541PdrCN" opacity="1" fill-opacity="0" stroke="#000000" stroke-width="1" stroke-opacity="0"></use></g></g><g><use xlink:href="#bpiQE3AA" opacity="1" fill="#ffffff" fill-opacity="1"></use><g><use xlink:href="#bpiQE3AA" opacity="1" fill-opacity="0" stroke="#000000" stroke-width="1" stroke-opacity="0"></use></g></g><g><use xlink:href="#a2sh3oZ3XY" opacity="1" fill="#ffffff" fill-opacity="1"></use><g><use xlink:href="#a2sh3oZ3XY" opacity="1" fill-opacity="0" stroke="#000000" stroke-width="1" stroke-opacity="0"></use></g></g><g><use xlink:href="#c8zzjOIfia" opacity="1" fill="#ffffff" fill-opacity="1"></use><g><use xlink:href="#c8zzjOIfia" opacity="1" fill-opacity="0" stroke="#000000" stroke-width="1" stroke-opacity="0"></use></g></g><g><use xlink:href="#a3w8Ly3Vfi" opacity="1" fill="#ffffff" fill-opacity="1"></use><g><use xlink:href="#a3w8Ly3Vfi" opacity="1" fill-opacity="0" stroke="#000000" stroke-width="1" stroke-opacity="0"></use></g></g><g><use xlink:href="#ayJhhksb" opacity="1" fill="#ffffff" fill-opacity="1"></use><g><use xlink:href="#ayJhhksb" opacity="1" fill-opacity="0" stroke="#000000" stroke-width="1" stroke-opacity="0"></use></g></g><g><use xlink:href="#a3leAl2Vam" opacity="1" fill="#ffffff" fill-opacity="1"></use><g><use xlink:href="#a3leAl2Vam" opacity="1" fill-opacity="0" stroke="#000000" stroke-width="1" stroke-opacity="0"></use></g></g><g><use xlink:href="#a5nUpjUacy" opacity="1" fill="#ffffff" fill-opacity="1"></use><g><use xlink:href="#a5nUpjUacy" opacity="1" fill-opacity="0" stroke="#000000" stroke-width="1" stroke-opacity="0"></use></g></g><g><use xlink:href="#e3kEKNmBro" opacity="1" fill="#ffffff" fill-opacity="1"></use><g><use xlink:href="#e3kEKNmBro" opacity="1" fill-opacity="0" stroke="#000000" stroke-width="1" stroke-opacity="0"></use></g></g></g></g></svg>