<svg id="Layer_1" data-name="Layer 1" xmlns="http://www.w3.org/2000/svg" viewBox="0 0 600 900"><defs><style>.cls-1{fill:#fbdad3;}.cls-2{fill:#fff;}</style></defs><title>placeholder</title><rect class="cls-1" x="-57" y="-13.15" width="714.9" height="929.69"/><path class="cls-2" d="M526.35,271c-1.24-8.18-4.93-15.66-6.91-23.65-1.87-7.53.25-15.75-2.12-23.06-4.7-14.49-22.46-4.91-31,.29-1.37.83-2.71,1.72-4,2.64-7.71-9.69-8.35-19.19-9.21-31.08-.4-5.5-3-10-8.2-12.09-5.55-2.17-11.66-.77-16.83,1.72-5.93,2.86-11.06,6.76-17.86,7.45-5.28.53-10.66-.52-15.89-1.09-10.49-1.15-19.8,1.24-24.24,11.06-6.94-4.13-16.78-11.11-24.46-6.21-3.58,2.28-5.52,7.12-7.36,10.71-3.27,6.39-6.49,9.87-13,13.45-18.84,10.39-29.28,28.93-26.07,50.4a3.53,3.53,0,0,0,.11.85,3.42,3.42,0,0,0,.22.76c7.64,28.6,27.83,52,53.47,66.42a99.86,99.86,0,0,0,28.41,10.7,27.41,27.41,0,0,0-13.7,14.84c-.88,2.2,1,4.77,3,5.37,2.48.71,4.49-.87,5.37-3a17.78,17.78,0,0,1,11.81-10.26c-23.6,92.53-81.66,172.16-160,225.05-3.95-12.6-5-26.23-5.78-39.29-.69-11.55-.88-23.13-.71-34.71.1,0,.19,0,.3,0l.46,0a3.54,3.54,0,0,0,.37.27c7.49,4.45,44.28,24.13,47.61,6.25,3.44-18.5-40-13.77-48.43-13l-.17,0q.28-10.56.9-21.09.38-6.44.88-12.91c10.26,3.18,53.83,14.5,52.8-5.22-1-18.38-37.82-7.44-52.15-2.77.85-9.71,1.89-19.43,3.22-29.13,14.09.61,58.21,1.57,54.27-17.09-3.54-16.76-38-.63-52.87,7.57,1.86-11.89,4.19-23.7,7.05-35.35a3.49,3.49,0,0,0,.73-.37l.29-.2a3.6,3.6,0,0,0,.52.07c7.4.29,53.09-.81,43.49-18.25-7-12.77-30.73,1.55-42.59,9.38,2-7.3,4.23-14.53,6.74-21.66a3.69,3.69,0,0,0,.42-.51l.14,0c7.77-2.88,47.7-20.31,33.87-33.46-5.6-5.33-14,.58-18.54,4.34a66.15,66.15,0,0,0-6.52,6.27c7.11-16.3,13.83-39.08-1.9-40.63-9.59-1-13.06,10.87-14.25,18.09-2.16,13.2-.05,26.56,2,39.63,0,.08,0,.14.06.22q-5,13.49-8.74,27.44c-5.45-12-21.27-42-32.7-29.58-5.46,5.93,1.17,14.49,5.23,19,7.1,8,16.22,13.81,25.17,19.47-3,12.41-5.43,25-7.34,37.69-7.24-9.43-35.16-42.55-45.78-26.48-5.13,7.75,4.88,15.73,10.37,19.43,10.37,7,22.52,10.85,34.34,14.57-1.33,9.8-2.38,19.62-3.23,29.42a3.28,3.28,0,0,0-1.35-.38s-.08-.1-.13-.15c-6.74-6.18-39.44-32.57-45.74-13.93-6.45,19.08,36.17,20.28,45.72,20.61a3.35,3.35,0,0,0,1-.12q-.59,7.52-1,15-.61,10.23-.89,20.49c-9.17-2-52.41-8.6-45.91,11.23,5.27,16.08,33.15,3.08,45.75-3.32-.16,12,.07,23.92.85,35.85.89,13.66,2.07,28,6.54,41.1a400,400,0,0,1-43.71,24.73,466.17,466.17,0,0,1-82.89,30.5c-.75-11.84,3.79-25.29,7.38-36.07a166,166,0,0,1,7.92-19.7c10.37-.54,21.64-2.51,27.53-12,3.4-5.47,4.51-12,5.92-18.2a81.27,81.27,0,0,1,7.65-20.87,3.31,3.31,0,0,0-3.69-4.81c-12.62,2.65-26.21,7.45-36.17,15.87-12.5,10.59-9.33,22.76-7,36.91a174.76,174.76,0,0,0-8.47,21c-4,12.07-8.41,26.37-7.41,39.47Q90.94,647.56,72.26,651c-4.13.76-2.38,7.07,1.74,6.31C119.17,649,163.32,635.15,204.35,615a253.42,253.42,0,0,1,29.93,16.49c-7,6-11.61,13.25-12.49,22.87-1.39,15.19,3.66,29.86,10,43.41A3.28,3.28,0,0,0,236,700a3.07,3.07,0,0,0,2.19-2.16c4-12.81,14.81-21.61,16.26-35.5a37.81,37.81,0,0,0-2.86-18.44,191.25,191.25,0,0,1,25.71,24.63c-1.8,14-4,25.73,8.65,35.6,10.19,8,23.78,12.22,36.37,14.41,2.71.47,5.22-2.16,3.69-4.81a72.08,72.08,0,0,1-7.4-16.82c-1.83-6.51-2.95-13.55-6.24-19.55-6.17-11.27-18.51-13.17-30.31-13.29a197.66,197.66,0,0,0-23.57-23c16.55,2.59,35.48-1.22,49.16-6.2a3.23,3.23,0,0,0,2-2,3,3,0,0,0-1-4,2.55,2.55,0,0,0-1.88-.56c-15.26-3.13-28.24-12.38-43.35-15.93-12.65-3-22.39,1.06-31.65,9.78q-9.72-5.86-20.12-10.93a409.25,409.25,0,0,0,65.61-42c3.31-2.6,6.55-5.27,9.77-8,27.62,9.89,57,13.67,86,8.22a155.37,155.37,0,0,0,35.32-11.28c9.47,12.32,27.6,16,40.68,6.68,16.39-11.68,19-30.3,19.87-49a2.76,2.76,0,0,0-.06-1.6,3.27,3.27,0,0,0-2.3-2.38c-13-2.57-28.77-5.22-41.56-.51-17.25,6.37-27,23.54-20,41.08a151.21,151.21,0,0,1-33.68,10.64,136.31,136.31,0,0,1-20.79,2.24c4.37-17,17.92-33.4,28.93-46.32a198.21,198.21,0,0,1,30.3-29.34c26.62,9.07,54.53-2.83,68-27.53.92-1.68.21-4.45-2-4.81-10.58-1.76-21.17-3.88-31.84-5-7-.75-15.86-1.62-21.94,2.83-8.35,6.1-12.55,18.86-15.33,28.73a199.48,199.48,0,0,0-31.86,30.51c-12.07,14.15-26.56,31.71-30.91,50.29a3.65,3.65,0,0,0-.09.71,169,169,0,0,1-51.08-9.13A391.66,391.66,0,0,0,387.61,432a389.63,389.63,0,0,0,27.24-75.5c5,4.65,9,10.64,8.06,17.74-.73,5.55,8,5.49,8.72,0,1.09-8.2-3-16-8.58-21.88a101.8,101.8,0,0,0,28.16-4.46C475.13,340.55,496,325,512.15,306.2,521,295.95,528.5,285.18,526.35,271ZM128.88,564.17c.58-8,6-13.18,12.43-17.23a82,82,0,0,1,22.06-9.38,135.81,135.81,0,0,0-6.42,21.16c-1.55,6.45-3.47,13.31-9.73,16.72-3.84,2.09-8.32,2.89-12.75,3.26a104.88,104.88,0,0,1,16.59-22.62c2.95-3-1.68-7.64-4.63-4.63a110,110,0,0,0-16.52,22.09A31.38,31.38,0,0,1,128.88,564.17ZM310.65,692.32a106.12,106.12,0,0,0,6.48,18.45,81.45,81.45,0,0,1-22.85-8.9c-5.7-3.4-10.91-7.92-12.29-14.72-.83-4.09-.19-8.17.62-12.22a185.17,185.17,0,0,1,11.1,15.65c2.24,3.55,7.91.27,5.65-3.3a193.16,193.16,0,0,0-11.76-16.56,29.93,29.93,0,0,1,11.89,2.79C306.9,677.31,308.7,684.95,310.65,692.32ZM246,670c-2.74,6.79-7.49,12.56-11,19-7.44-17.69-12-39.15,3.73-52.74C247.33,645,250.68,658.39,246,670Zm26.88-47.5c7.56,3.07,14.75,6.69,22.33,9.39-18.71,4.85-43.86,6.77-56.69-6.91,4.45-3.87,9.57-7.1,15.68-7.26C260.53,617.51,267.13,620.12,272.89,622.45ZM460.4,524.28c-8.2,18.9-22,32.74-43.29,29.79A226.59,226.59,0,0,0,460.4,524.28Zm-3.38-5.7a221.19,221.19,0,0,1-41.52,29C423.42,531.39,439.14,522.17,457,518.58Zm-6.75,36.65c-8,8.43-19.7,10.45-28.86,5.73,16.43.47,28.78-7.93,37.67-20.91A38.7,38.7,0,0,1,450.27,555.23ZM436.18,515.9c2.27-.17,4.57-.21,6.87-.17-14.43,5.38-26.49,14.94-33.38,28.87C407.57,529.4,420.19,517.08,436.18,515.9Zm-11.71-54c5.08-5.06,14.33-3.51,20.83-2.74,8.17,1,16.31,2.48,24.43,3.89-11.82,18-32.34,26.72-53.11,21.92a110.07,110.07,0,0,1,22.78-11.83c3.91-1.45,2.22-7.78-1.74-6.31A117.62,117.62,0,0,0,415.46,478C417.54,472,420.32,466,424.47,461.9ZM394.86,209.31C399.13,193.08,415,200,427,199.89a35.12,35.12,0,0,0,16.42-4.1c7.26-3.72,22.58-13,23.11,3.09.41,12.42,2.9,22.44,10.53,32.27-9.32,7.63-16.81,17.46-19.81,29.22-.92.19-1.84.41-2.75.67a35.1,35.1,0,0,0-8.41-7.61c.13-.31.27-.62.4-.93a153.63,153.63,0,0,0,8.11-24.9c.94-4.1-5.36-5.85-6.31-1.74a154.4,154.4,0,0,1-8,24.49,27.62,27.62,0,0,0-9.19-2V223.78c0-4.21-6.54-4.22-6.54,0v24.8c-1.56.17-3.17.41-4.82.7-5.54-8.37-13.28-13.88-23.33-10.81C393.7,229.36,392.52,218.2,394.86,209.31Zm9.62,81.47c-2-3.73-7.6-.43-5.65,3.3,6.88,13.14,9.34,30.77,9.69,46.22-15-13.84-29-30.54-30.66-51.52-.33-4.17-6.88-4.2-6.54,0,1.62,20.22,13.14,36.77,27,50.77a96,96,0,0,1-40.62-31.85,91.49,91.49,0,0,1-10.9-19.23c-3.05-7.54,2.1-10.87,7.49-14.47,4.26-2.84,7-6.36,10-10.43,2.22-3,4.41-6.95,7.83-8.82,5.15-2.83,7.55-.28,12-.56,3.8-.24,5.69-2.1,8.25-4.67s4.68-5.2,8.9-5.1c6.1.14,10.81,5.41,14,10a49.68,49.68,0,0,1,7.06,16.5c3.14,13,1.79,26.54-.26,39.6-1.43,9.12-3.36,17.6-7.13,25.56C414.17,320.6,411.27,303.75,404.48,290.77Zm-78.87-20.1c-1.7-10.24.27-17.77,4.82-26.82s11.92-13.32,20.38-18.31c6.4-3.77,9.77-8.07,13.08-14.54,2.29-4.49,4-9.49,10.15-8.6,4.79.69,9.81,4.78,14,7.19-2.19,10.37-.59,22.8,2.76,32.57a19.35,19.35,0,0,1-4.41,4.29c-3.3,2-8,.64-12.35,1-2.25-4.43-3-9.15-4-14.06-.84-4.12-7.14-2.38-6.31,1.74,1,5.14,2,10,4.19,14.66-3.5,2.44-6,5.88-8.51,9.39-.62.89-1.27,1.69-1.93,2.46a49.51,49.51,0,0,1-5.71-17.74c-.63-4.15-6.93-2.39-6.31,1.74a52.91,52.91,0,0,0,7.19,20.67c-2.57,2.1-5.33,4-8.26,6.17-13.35,10.07,1.51,30.31,8.84,40.08a101,101,0,0,0,17.35,18C348.9,316.66,332.12,295.87,325.61,270.68Zm96.45,74.88c19.9-7.63,34.34-24.22,46.72-41.36,2.47-3.42-3.2-6.69-5.65-3.3-11.27,15.6-24.37,30.85-42.31,38.13,8-16.34,10.75-36.74,9.83-54.46,5.16-5.65,10.83-10.59,17.73-14.07,8.06-4.06,22.08-7.14,28.5,1.72,4,5.51,1.06,13.53,4.53,19.77,1.76,3.17,4.46,5.74,6.18,8.92,3.47,6.42,2.58,14.18-.78,20.41C467.83,335.94,445.17,345.1,422.06,345.56Zm97.52-63.2c-2.44,9.77-11,18.4-17.83,25.57q-2.77,2.89-5.71,5.6a28.13,28.13,0,0,0-4.8-18.73,64,64,0,0,0,17.08-22.73c1.76-3.8-3.88-7.12-5.65-3.3-3.65,7.88-8.39,15-15,20.6a16.38,16.38,0,0,1-2.18-6.6c-.25-2.29.23-4.64-.07-7a16,16,0,0,0-.43-2.11,31,31,0,0,0,8.45-14.14c1.21-4-5.1-5.77-6.31-1.74a25.5,25.5,0,0,1-4.68,9.07c-.23.28-.49.55-.73.81a21.08,21.08,0,0,0-2.32-2.21,24.46,24.46,0,0,0-15.09-5.75c3.76-11.61,12.34-20.86,22.49-27.67,4.32-2.9,9.95-6.74,15.09-7.79,12.76-2.61,9.24,8.44,9.77,16.07C512.61,254.43,523.15,268.1,519.59,282.36Z"/></svg>