<svg id="Layer_1" data-name="Layer 1" xmlns="http://www.w3.org/2000/svg" viewBox="0 0 800 600"><defs><style>.cls-1{fill:#fad9d2;}</style></defs><title>szam_3</title><path class="cls-1" d="M372.14,259c-2.18,2.86-6.69-.55-5.59-3.27,4.91-10.5,17.87-16.24,29.88-16.24,13.37,0,26.19,7.5,27.42,22.51,0,13.78-12.14,25.78-24.28,31.65,13.78,3.14,29.6,13.64,29.6,28.65,0,23.47-22.65,37.38-43.79,37.38-18.69,0-36.15-11.05-35.88-35.74.41-1.91,7-.82,7.5.55v.27c.27,18.42,12,26.19,24.56,26.19,14.73,0,30.42-10.5,30.42-28.24,0-12.55-10.91-20.46-23.19-22.37-3-.14-5.87-.41-8.46-.41s-5.73.27-8.73.41c-5.18-.27-3.82-6.14-.14-6.41,16.51-1.77,37.52-15.14,36.15-30.7-1-10.64-8.46-15.42-16.37-15.42-7.64,0-15.55,4.09-19,10.91Z"/><path class="cls-1" d="M442.81,347.11a6.41,6.41,0,0,1,6.41,6.41,6.41,6.41,0,0,1-12.82,0A6.41,6.41,0,0,1,442.81,347.11Z"/></svg>