<svg id="Layer_1" data-name="Layer 1" xmlns="http://www.w3.org/2000/svg" viewBox="0 0 800 600"><defs><style>.cls-1{fill:#fad9d2;}</style></defs><title>szam_2</title><path class="cls-1" d="M362.15,281.24c-1.5,2.59-6.14,1.09-6.14-.14-.14-12,8-24.56,16.51-32.47,8.32-6.55,20.46-11.19,30.29-11.19,16.64,0,31.65,9.28,31.65,26.87a37.25,37.25,0,0,1-.68,6.82c-3.14,16.24-24,33.83-41.75,48-12.55,10.23-25.51,20.87-30.29,29.6,11.46-1.77,22-2.46,32.33-.55,15.83,2.73,25.78,4.78,39.15-.41,1.64-.68,8.32,2.18,2.46,6-15.83,8.32-31.65,7-47.89,5-12.82-2-23.6-3-34.38.14h.14a33.4,33.4,0,0,1-5.46.41c-4.23,0-8.46-1-7.09-4.37v.14c5.87-15.14,21.28-27.83,36.7-40.52,17.19-14.19,34.38-28.51,36.29-44.07a27.28,27.28,0,0,0,.27-4.5c0-12.82-8.59-19.1-18.69-19.1A31.6,31.6,0,0,0,377,253.68C368.69,260.23,362.28,270.32,362.15,281.24Z"/><path class="cls-1" d="M451.8,348.5a6.41,6.41,0,0,1,6.41,6.41,6.41,6.41,0,0,1-12.82,0A6.41,6.41,0,0,1,451.8,348.5Z"/></svg>