<svg id="Layer_1" data-name="Layer 1" xmlns="http://www.w3.org/2000/svg" viewBox="0 0 800 600"><defs><style>.cls-1{fill:#fad9d2;}</style></defs><title>szam_1</title><path class="cls-1" d="M377.52,266.54c-2.73,0-5.32-3.27-2.73-5.73,7.64-5.87,10.23-8.87,14.33-17.6,1.64-4.09,5.46-6.14,9.55-6.55,3.68,0,7.64,1,7.64,6.55-1.09,11.6-2.32,22.92-3.41,34-2.59,25.65-5.59,53.89-7.09,80.63-1,4.23-5.18,6.27-9,6.27-4.09,0-7.91-2-7.91-6.27,1.36-17.6,3-33.56,4.64-49.11,1.91-17.6,3.41-29.74,4.91-49.93a27.85,27.85,0,0,1-10.1,7.64Z"/><path class="cls-1" d="M419.59,351.4a6.41,6.41,0,0,1,6.41,6.41,6.41,6.41,0,0,1-12.82,0A6.41,6.41,0,0,1,419.59,351.4Z"/></svg>