<svg id="Layer_1" data-name="Layer 1" xmlns="http://www.w3.org/2000/svg" viewBox="0 0 800 600"><defs><style>.cls-1{fill:#fbdad3;}</style></defs><title>virag_rozsaszin</title><path class="cls-1" d="M603.2,140.86c-1.1-7.28-4.38-13.94-6.14-21-1.66-6.7.22-14-1.89-20.52-4.18-12.89-20-4.37-27.57.26-1.22.74-2.41,1.53-3.59,2.34-6.86-8.62-7.43-17.07-8.2-27.65-.35-4.89-2.63-8.93-7.3-10.75-4.94-1.93-10.37-.68-15,1.53-5.27,2.54-9.84,6-15.89,6.63-4.7.48-9.49-.46-14.14-1-9.34-1-17.61,1.1-21.57,9.84C475.76,76.85,467,70.64,460.18,75c-3.18,2-4.91,6.33-6.54,9.53a24.94,24.94,0,0,1-11.55,12c-16.76,9.24-26,25.74-23.19,44.84a3.14,3.14,0,0,0,.1.76,3,3,0,0,0,.2.68c6.8,25.45,24.76,46.31,47.57,59.09A88.84,88.84,0,0,0,492,211.38a24.39,24.39,0,0,0-12.19,13.2c-.79,2,.86,4.24,2.71,4.77,2.2.63,4-.77,4.77-2.71a15.82,15.82,0,0,1,10.51-9.12c-21,82.32-72.65,153.17-142.35,200.23-3.51-11.21-4.45-23.33-5.14-35-.61-10.28-.78-20.58-.63-30.88H350l.41,0a3.15,3.15,0,0,0,.33.24c6.67,4,39.39,21.47,42.36,5.56,3.06-16.46-35.56-12.25-43.09-11.59l-.15,0q.25-9.39.81-18.77.34-5.73.78-11.48c9.13,2.83,47.89,12.9,47-4.65-.85-16.35-33.65-6.62-46.39-2.47.75-8.64,1.69-17.29,2.87-25.91,12.53.54,51.79,1.4,48.28-15.2-3.15-14.91-33.8-.56-47,6.73,1.66-10.58,3.73-21.09,6.28-31.45a3.11,3.11,0,0,0,.65-.33l.26-.18a3.2,3.2,0,0,0,.46.06c6.58.26,47.23-.72,38.7-16.23-6.25-11.36-27.34,1.38-37.89,8.34,1.79-6.5,3.77-12.93,6-19.27a3.29,3.29,0,0,0,.37-.45l.12,0c6.92-2.56,42.44-18.07,30.14-29.77-5-4.74-12.46.51-16.5,3.86a58.85,58.85,0,0,0-5.8,5.58c6.32-14.5,12.3-34.76-1.69-36.15-8.53-.85-11.62,9.67-12.67,16.1-1.92,11.74,0,23.63,1.78,35.25,0,.07,0,.13.05.19q-4.44,12-7.77,24.42C353.74,223.64,339.66,197,329.49,208c-4.86,5.27,1,12.89,4.65,16.94,6.32,7.08,14.43,12.28,22.39,17.32-2.69,11-4.83,22.26-6.53,33.53-6.44-8.39-31.28-37.86-40.73-23.56-4.56,6.9,4.34,14,9.22,17.28,9.22,6.21,20,9.65,30.55,13-1.18,8.71-2.12,17.45-2.87,26.17a2.92,2.92,0,0,0-1.2-.34l-.12-.13c-6-5.5-35.08-29-40.69-12.39-5.74,17,32.18,18,40.68,18.33a3,3,0,0,0,.89-.11q-.52,6.69-.92,13.34-.54,9.1-.79,18.23c-8.16-1.82-46.63-7.65-40.85,10,4.69,14.31,29.49,2.74,40.7-3-.14,10.64.06,21.28.75,31.89.79,12.16,1.85,24.94,5.82,36.57a355.82,355.82,0,0,1-38.89,22,414.74,414.74,0,0,1-73.74,27.14c-.67-10.53,3.37-22.5,6.56-32.09a147.67,147.67,0,0,1,7-17.53c9.23-.48,19.25-2.23,24.49-10.65,3-4.87,4-10.7,5.26-16.19A72.31,72.31,0,0,1,288,375.18a3,3,0,0,0-3.29-4.28c-11.22,2.36-23.32,6.63-32.18,14.12-11.12,9.42-8.3,20.25-6.22,32.83a155.48,155.48,0,0,0-7.54,18.71c-3.58,10.74-7.48,23.46-6.59,35.11q-16.36,4.16-33,7.22c-3.68.68-2.12,6.29,1.55,5.61,40.18-7.41,79.46-19.71,116-37.67a225.46,225.46,0,0,1,26.63,14.67c-6.22,5.37-10.33,11.79-11.11,20.34-1.24,13.51,3.26,26.57,8.93,38.62a2.92,2.92,0,0,0,3.73,2,2.73,2.73,0,0,0,1.95-1.92c3.53-11.4,13.18-19.22,14.46-31.59a33.64,33.64,0,0,0-2.55-16.41,170.15,170.15,0,0,1,22.87,21.92c-1.6,12.42-3.56,22.89,7.7,31.67,9.06,7.07,21.15,10.88,32.36,12.82,2.41.42,4.64-1.92,3.29-4.28a64.13,64.13,0,0,1-6.59-15c-1.63-5.8-2.62-12.06-5.55-17.39-5.49-10-16.47-11.72-27-11.83a175.85,175.85,0,0,0-21-20.46c14.73,2.3,31.56-1.09,43.74-5.51a2.87,2.87,0,0,0,1.78-1.75,2.64,2.64,0,0,0-.88-3.53,2.27,2.27,0,0,0-1.67-.5c-13.58-2.78-25.12-11-38.57-14.17-11.26-2.64-19.92.95-28.16,8.7q-8.65-5.22-17.9-9.72a364.1,364.1,0,0,0,58.37-37.35c2.94-2.31,5.83-4.68,8.69-7.09,24.57,8.8,50.71,12.16,76.54,7.32a138.23,138.23,0,0,0,31.43-10c8.43,11,24.55,14.24,36.19,5.95,14.58-10.39,16.93-27,17.68-43.55a2.46,2.46,0,0,0-.05-1.42,2.91,2.91,0,0,0-2-2.12c-11.61-2.28-25.6-4.65-37-.45-15.35,5.66-24,20.95-17.8,36.55a134.53,134.53,0,0,1-30,9.47,121.27,121.27,0,0,1-18.49,2c3.89-15.1,15.95-29.71,25.74-41.21a176.34,176.34,0,0,1,27-26.1C523.18,343.59,548,333,560,311c.82-1.5.19-4-1.74-4.28-9.41-1.56-18.83-3.45-28.32-4.47-6.26-.67-14.11-1.44-19.52,2.51-7.43,5.43-11.17,16.78-13.64,25.56a177.48,177.48,0,0,0-28.35,27.15c-10.74,12.59-23.63,28.21-27.5,44.74a3.25,3.25,0,0,0-.08.63,150.38,150.38,0,0,1-45.44-8.12A347.13,347.13,0,0,0,504,216.87c4.45,4.13,8,9.47,7.17,15.78-.65,4.94,7.11,4.89,7.76,0,1-7.29-2.7-14.22-7.64-19.46a90.57,90.57,0,0,0,25.05-4c21.28-6.51,39.82-20.31,54.22-37.07C598.4,163,605.1,153.45,603.2,140.86ZM249.57,401.66c.51-7.12,5.35-11.73,11.06-15.33A73,73,0,0,1,280.26,378a120.83,120.83,0,0,0-5.72,18.83c-1.38,5.74-3.08,11.84-8.66,14.88a28.6,28.6,0,0,1-11.34,2.9,93.31,93.31,0,0,1,14.76-20.13c2.62-2.68-1.49-6.8-4.12-4.12A97.89,97.89,0,0,0,250.48,410,27.92,27.92,0,0,1,249.57,401.66Zm161.72,114a94.42,94.42,0,0,0,5.76,16.41,72.46,72.46,0,0,1-20.32-7.91c-5.07-3-9.71-7-10.93-13.09-.74-3.64-.17-7.27.55-10.87a164.75,164.75,0,0,1,9.88,13.92c2,3.16,7,.24,5-2.94a171.85,171.85,0,0,0-10.47-14.73,26.63,26.63,0,0,1,10.58,2.48C408,502.32,409.55,509.12,411.29,515.68Zm-57.51-19.9c-2.44,6-6.67,11.17-9.78,16.88-6.62-15.74-10.67-34.83,3.32-46.92C355,473.55,357.93,485.49,353.78,495.77Zm23.91-42.26c6.73,2.73,13.12,6,19.86,8.36-16.64,4.32-39,6-50.43-6.14,4-3.44,8.51-6.32,13.95-6.46C366.7,449.12,372.57,451.44,377.7,453.51Zm166.82-87.34C537.22,383,525,395.31,506,392.67A201.6,201.6,0,0,0,544.52,366.17Zm-3-5.07a196.79,196.79,0,0,1-36.94,25.76C511.61,372.5,525.61,364.3,541.51,361.1Zm-6,32.61c-7.11,7.5-17.53,9.3-25.68,5.1,14.61.42,25.6-7.05,33.52-18.6A34.43,34.43,0,0,1,535.5,393.7Zm-12.53-35c2-.15,4.06-.19,6.11-.15-12.84,4.79-23.57,13.29-29.7,25.68C497.52,370.73,508.75,359.77,523,358.71Zm-10.42-48c4.52-4.5,12.75-3.12,18.53-2.44,7.27.85,14.51,2.21,21.73,3.46-10.52,16-28.77,23.77-47.25,19.5a97.92,97.92,0,0,1,20.27-10.52c3.48-1.29,2-6.92-1.55-5.61A104.64,104.64,0,0,0,504.53,325C506.39,319.65,508.86,314.35,512.55,310.67ZM486.21,85.95c3.8-14.44,18-8.3,28.64-8.38a31.25,31.25,0,0,0,14.61-3.65c6.46-3.31,20.08-11.56,20.56,2.75.37,11.05,2.58,20,9.37,28.71-8.3,6.79-15,15.53-17.62,26-.82.17-1.63.37-2.45.6a31.23,31.23,0,0,0-7.48-6.77l.36-.83a136.68,136.68,0,0,0,7.22-22.15c.84-3.65-4.77-5.2-5.61-1.55a137.37,137.37,0,0,1-7.11,21.79,24.57,24.57,0,0,0-8.18-1.79V98.82c0-3.75-5.82-3.75-5.82,0v22.07c-1.39.15-2.82.37-4.29.62-4.93-7.45-11.82-12.35-20.75-9.62C485.18,103.79,484.13,93.86,486.21,85.95Zm8.56,72.48c-1.74-3.32-6.76-.38-5,2.94,6.12,11.69,8.31,27.37,8.62,41.12-13.35-12.31-25.79-27.17-27.28-45.84-.3-3.71-6.12-3.74-5.82,0,1.44,18,11.69,32.71,24.05,45.17a85.4,85.4,0,0,1-36.14-28.33,81.4,81.4,0,0,1-9.69-17.11c-2.72-6.71,1.87-9.67,6.66-12.87,3.79-2.53,6.21-5.66,8.86-9.28,2-2.7,3.92-6.18,7-7.85,4.58-2.51,6.72-.25,10.71-.5,3.38-.21,5.07-1.87,7.34-4.16s4.16-4.62,7.92-4.54c5.43.13,9.61,4.82,12.41,8.91a44.2,44.2,0,0,1,6.28,14.68c2.8,11.58,1.59,23.61-.23,35.23-1.27,8.11-3,15.66-6.35,22.74C503.39,185,500.81,170,494.77,158.43ZM424.6,140.54c-1.51-9.11.24-15.81,4.29-23.86s10.6-11.85,18.13-16.29c5.69-3.35,8.69-7.18,11.63-12.94,2-4,3.54-8.44,9-7.65,4.26.61,8.72,4.25,12.46,6.4-2,9.22-.53,20.28,2.45,29a17.22,17.22,0,0,1-3.92,3.81c-2.94,1.79-7.15.57-11,.86-2-3.94-2.69-8.14-3.58-12.51-.74-3.67-6.36-2.12-5.61,1.55.93,4.57,1.75,8.91,3.73,13-3.11,2.17-5.37,5.23-7.57,8.35-.56.79-1.13,1.5-1.71,2.19a44.05,44.05,0,0,1-5.08-15.78c-.56-3.69-6.17-2.12-5.61,1.55a47.07,47.07,0,0,0,6.4,18.39c-2.29,1.87-4.74,3.52-7.35,5.48-11.88,9,1.34,27,7.86,35.66a89.9,89.9,0,0,0,15.43,16C445.32,181.46,430.39,163,424.6,140.54Zm85.81,66.62c17.71-6.79,30.55-21.55,41.57-36.8,2.2-3-2.85-5.95-5-2.94-10,13.88-21.69,27.45-37.65,33.93,7.16-14.54,9.57-32.69,8.74-48.45a55.11,55.11,0,0,1,15.78-12.52c7.17-3.62,19.65-6.36,25.35,1.53,3.55,4.9.94,12,4,17.59,1.57,2.82,4,5.1,5.5,7.94,3.08,5.71,2.3,12.62-.69,18.16C551.13,198.61,531,206.76,510.41,207.17Zm86.77-56.23c-2.17,8.69-9.75,16.37-15.86,22.75q-2.46,2.57-5.08,5A25,25,0,0,0,572,162a56.91,56.91,0,0,0,15.2-20.22c1.56-3.38-3.45-6.34-5-2.94-3.25,7-7.47,13.35-13.37,18.33a14.58,14.58,0,0,1-1.94-5.87c-.22-2,.21-4.13-.06-6.18a14.19,14.19,0,0,0-.38-1.87,27.58,27.58,0,0,0,7.52-12.58c1.08-3.6-4.54-5.13-5.61-1.55a22.68,22.68,0,0,1-4.16,8.07c-.21.25-.43.49-.65.72a18.75,18.75,0,0,0-2.07-2A21.76,21.76,0,0,0,548,130.83c3.35-10.33,11-18.56,20-24.61,3.85-2.58,8.85-6,13.43-6.93,11.36-2.33,8.22,7.51,8.69,14.3C591,126.09,600.35,138.25,597.18,150.94Z"/></svg>